<?xml version="1.0" standalone="no"?>
<!DOCTYPE svg PUBLIC "-//W3C//DTD SVG 20010904//EN"
 "http://www.w3.org/TR/2001/REC-SVG-20010904/DTD/svg10.dtd">
<svg fill="#30B2DC" version="1.0" xmlns="http://www.w3.org/2000/svg"
 width="512.000000pt" height="512.000000pt" viewBox="0 0 512.000000 512.000000"
 preserveAspectRatio="xMidYMid meet" >

<g transform="translate(0.000000,512.000000) scale(0.100000,-0.100000)"
fill="#000000" stroke="none">
<path fill="#30B2DC" d="M752 4790 c-36 -18 -74 -47 -92 -70 -64 -81 -60 58 -59 -1954 0
-1375 3 -1839 12 -1863 25 -66 73 -119 137 -152 l63 -31 999 0 c985 0 998 0
1018 20 26 26 26 64 0 90 -20 20 -33 20 -1008 20 -937 0 -989 1 -1021 18 -59
32 -71 68 -71 214 l0 128 719 0 720 0 15 22 c23 33 19 64 -10 87 -26 21 -34
21 -735 21 l-709 0 0 1440 0 1440 1160 0 1160 0 0 -485 c0 -472 1 -486 20
-505 28 -28 76 -26 95 4 14 21 15 103 13 707 -3 679 -3 684 -25 724 -28 52
-77 101 -127 128 l-41 22 -1086 3 -1085 2 -62 -30z m2226 -120 c60 -37 72 -70
72 -202 l0 -118 -1160 0 -1160 0 0 121 c0 104 3 126 20 154 42 69 -28 65 1140
65 1035 0 1056 0 1088 -20z"/>
<path fill="#30B2DC" d="M1542 3575 c-64 -30 -168 -127 -261 -245 -227 -286 -326 -529 -277
-678 32 -95 128 -162 232 -162 47 0 74 24 74 66 0 27 -44 64 -77 64 -36 0 -90
26 -102 48 -6 12 -11 41 -11 65 0 132 174 437 356 625 70 71 86 83 110 80 22
-2 30 -10 38 -36 15 -52 -16 -228 -84 -482 -89 -330 -89 -394 -4 -435 46 -22
93 -14 156 27 91 57 258 264 258 318 0 33 -28 60 -61 60 -33 0 -36 -3 -117
-111 -75 -101 -133 -159 -157 -159 -8 0 -15 2 -15 4 0 12 34 149 69 280 64
234 84 349 85 471 1 126 -15 174 -68 206 -42 25 -80 24 -144 -6z"/>
<path d="M3155 3127 c-62 -21 -74 -29 -330 -215 -230 -167 -286 -213 -298
-243 -3 -9 -33 13 -88 67 l-84 82 -149 21 c-216 31 -213 34 -176 -213 l19
-129 66 -67 67 -67 15 -129 c10 -83 16 -225 17 -399 1 -261 2 -272 25 -322 13
-29 42 -70 65 -90 22 -21 207 -167 410 -323 204 -157 398 -311 433 -344 44
-41 91 -102 154 -202 100 -159 165 -227 232 -245 65 -17 148 -5 230 33 87 42
529 295 608 349 110 75 154 152 147 259 -5 70 -20 106 -110 270 -61 111 -74
165 -93 384 -28 313 -65 629 -81 686 -40 140 -108 210 -314 327 -80 44 -195
106 -256 136 l-111 56 -59 103 c-68 119 -112 171 -167 199 -50 26 -121 32
-172 16z m132 -145 c27 -17 38 -35 258 -417 91 -159 174 -296 183 -302 37 -29
102 1 102 47 0 11 -34 79 -76 151 -42 72 -74 132 -72 135 10 9 305 -164 356
-210 26 -23 65 -95 76 -137 10 -43 55 -458 71 -655 8 -99 24 -216 35 -259 11
-43 17 -82 13 -86 -5 -4 -207 -122 -450 -262 l-442 -254 -41 51 c-56 69 -84
92 -532 438 -461 356 -430 318 -429 522 0 72 3 156 7 186 3 30 -1 122 -10 204
-21 197 -22 186 14 186 62 0 147 -116 196 -264 l26 -81 442 -443 c349 -350
450 -446 483 -458 94 -36 210 7 268 101 25 40 30 59 29 109 0 38 -7 74 -18 96
-10 19 -130 148 -267 285 l-249 250 41 40 c62 60 91 126 97 215 4 73 3 77 -40
160 -103 195 -173 304 -200 314 -22 8 -53 -2 -203 -68 -97 -43 -192 -80 -211
-83 -65 -11 -120 57 -92 113 16 33 485 380 532 393 36 10 71 4 103 -17z m-316
-957 c369 -369 677 -683 685 -698 20 -38 10 -80 -28 -112 -66 -55 -49 -68
-519 401 -410 409 -427 428 -444 482 -29 93 -86 199 -139 259 -62 69 -129 103
-206 103 -53 0 -58 2 -102 48 -42 42 -48 54 -57 112 -17 104 -22 98 64 86 l75
-11 671 -670z m216 347 c40 -70 77 -141 83 -159 17 -48 -3 -107 -55 -162 l-44
-46 -181 180 c-99 99 -180 182 -180 185 1 6 279 127 295 129 6 0 42 -56 82
-127z m1201 -1429 c5 -53 4 -54 -49 -106 -39 -39 -122 -92 -304 -197 -293
-168 -361 -202 -425 -208 -41 -4 -51 -1 -82 27 -29 25 -123 161 -115 166 1 1
184 107 407 235 223 128 423 243 445 256 l39 23 40 -71 c28 -51 41 -87 44
-125z" fill="#30B2DC"/>
</g>
</svg>
